<?xml version="1.0" encoding="utf-8"?>
<!-- Generator: Adobe Illustrator 24.1.2, SVG Export Plug-In . SVG Version: 6.00 Build 0)  -->
<svg version="1.1" id="图层_1" xmlns="http://www.w3.org/2000/svg" xmlns:xlink="http://www.w3.org/1999/xlink" x="0px" y="0px"
	 viewBox="0 0 1920 1080" style="enable-background:new 0 0 1920 1080;" xml:space="preserve">
<style type="text/css">
	.st0{fill:#FFFFFF;stroke:#000000;stroke-miterlimit:10;}
	.st1{fill:url(#SVGID_1_);stroke:#000000;stroke-miterlimit:10;}
	.st2{fill:url(#SVGID_2_);stroke:#000000;stroke-miterlimit:10;}
	.st3{fill:url(#SVGID_3_);stroke:#000000;stroke-miterlimit:10;}
	.st4{fill:url(#SVGID_4_);stroke:#000000;stroke-miterlimit:10;}
	.st5{fill:url(#SVGID_5_);stroke:#000000;stroke-miterlimit:10;}
	.st6{fill:url(#SVGID_6_);stroke:#000000;stroke-miterlimit:10;}
	.st7{fill:none;stroke:#FF931E;stroke-width:5;stroke-miterlimit:10;}
	.st8{fill:url(#SVGID_7_);stroke:#000000;stroke-miterlimit:10;}
	.st9{fill:#FF931E;stroke:#FF931E;stroke-width:5;stroke-miterlimit:10;}
	.st10{fill:#7AC943;stroke:#000000;stroke-miterlimit:10;}
</style>
<g>
	<path class="st0" d="M923.8,442.8c0.4,1.1,0.7,2.2,1.2,3.2"/>
	<linearGradient id="SVGID_1_" gradientUnits="userSpaceOnUse" x1="924.3661" y1="290.3759" x2="924.3661" y2="598.3759">
		<stop  offset="0" style="stop-color:#FF7BAC"/>
		<stop  offset="0.2398" style="stop-color:#FF9BC0"/>
		<stop  offset="1" style="stop-color:#FFFFFF"/>
	</linearGradient>
	<path class="st1" d="M968.7,290.4h0.4c-46.4,0-103.9,87.2-86,159.7c20,80.9,39.6,148.3,86,148.3"/>
	<linearGradient id="SVGID_2_" gradientUnits="userSpaceOnUse" x1="924.1576" y1="155.0196" x2="924.1576" y2="463.0196">
		<stop  offset="0" style="stop-color:#FF7BAC"/>
		<stop  offset="0.2398" style="stop-color:#FF9BC0"/>
		<stop  offset="1" style="stop-color:#FFFFFF"/>
	</linearGradient>
	<path class="st2" d="M924,463c46.4,0,66-67.4,86-148.3c17.9-72.5-39.6-159.7-86-159.7h0.4c-46.4,0-103.9,87.2-86,159.7
		c20,80.9,39.6,148.3,86,148.3"/>
	
		<linearGradient id="SVGID_3_" gradientUnits="userSpaceOnUse" x1="821.5391" y1="35.416" x2="821.5391" y2="343.416" gradientTransform="matrix(0.309 -0.9511 0.9511 0.309 336.8513 1150.9978)">
		<stop  offset="0" style="stop-color:#FF7BAC"/>
		<stop  offset="0.2398" style="stop-color:#FF9BC0"/>
		<stop  offset="1" style="stop-color:#FFFFFF"/>
	</linearGradient>
	<path class="st3" d="M917.3,476c14.3-44.1-43.7-83.6-114.5-127.6c-63.4-39.4-164.1-11.7-178.4,32.4l0.1-0.3
		c-14.3,44.1,50.8,125.8,125.3,131.1c83.2,6,153.3,8.2,167.6-36"/>
	
		<linearGradient id="SVGID_4_" gradientUnits="userSpaceOnUse" x1="913.6251" y1="-92.0789" x2="913.6251" y2="215.9211" gradientTransform="matrix(-0.809 -0.5878 0.5878 -0.809 1535.608 1186.311)">
		<stop  offset="0" style="stop-color:#FF7BAC"/>
		<stop  offset="0.2398" style="stop-color:#FF9BC0"/>
		<stop  offset="1" style="stop-color:#FFFFFF"/>
	</linearGradient>
	<path class="st4" d="M923.5,474.7c-37.5-27.3-93,15.7-156.8,69.4c-57.1,48.1-61.8,152.5-24.3,179.7l-0.3-0.2
		c37.5,27.3,135.3-9.5,163.4-78.6c31.4-77.2,55.1-143.3,17.6-170.5"/>
	
		<linearGradient id="SVGID_5_" gradientUnits="userSpaceOnUse" x1="1065.735" y1="-50.9603" x2="1065.735" y2="257.0397" gradientTransform="matrix(-0.809 0.5878 -0.5878 -0.809 1939.6292 57.138)">
		<stop  offset="0" style="stop-color:#FF7BAC"/>
		<stop  offset="0.2398" style="stop-color:#FF9BC0"/>
		<stop  offset="1" style="stop-color:#FFFFFF"/>
	</linearGradient>
	<path class="st5" d="M926.5,475.5c-37.5,27.3-13.8,93.3,17.6,170.5c28.1,69.2,125.9,105.9,163.4,78.6l-0.3,0.2
		c37.5-27.3,32.8-131.6-24.3-179.7c-63.8-53.7-119.2-96.7-156.8-69.4"/>
	
		<linearGradient id="SVGID_6_" gradientUnits="userSpaceOnUse" x1="1076.222" y1="103.8983" x2="1076.222" y2="411.8983" gradientTransform="matrix(0.309 0.9511 -0.9511 0.309 990.5712 -676.0425)">
		<stop  offset="0" style="stop-color:#FF7BAC"/>
		<stop  offset="0.2398" style="stop-color:#FF9BC0"/>
		<stop  offset="1" style="stop-color:#FFFFFF"/>
	</linearGradient>
	<path class="st6" d="M931.3,474.6c14.3,44.1,84.5,41.9,167.6,36c74.5-5.4,139.6-87,125.3-131.1l0.1,0.3
		c-14.3-44.1-115-71.9-178.4-32.4c-70.8,44-128.8,83.5-114.5,127.6"/>
	<path class="st7" d="M924.4,444.4"/>
	<linearGradient id="SVGID_7_" gradientUnits="userSpaceOnUse" x1="878.6766" y1="154.5" x2="878.6766" y2="462.5">
		<stop  offset="0" style="stop-color:#FF7BAC"/>
		<stop  offset="0.2398" style="stop-color:#FF9BC0"/>
		<stop  offset="1" style="stop-color:#FFFFFF"/>
	</linearGradient>
	<path class="st8" d="M923,154.5h0.4c-46.4,0-103.9,87.2-86,159.7c20,80.9,39.6,148.3,86,148.3"/>
	<g>
		<g>
			<path class="st7" d="M925.1,472.4c-66,0-119.5-53.5-119.5-119.5"/>
			<circle class="st9" cx="805.9" cy="352.9" r="8.5"/>
		</g>
		<g>
			<path class="st7" d="M926.1,471.6c-53.4,38.8-128.1,27-166.9-26.4"/>
			<circle class="st9" cx="759.4" cy="445" r="8.5"/>
		</g>
		<g>
			<path class="st7" d="M926.5,470.3c-20.4,62.8-87.8,97.1-150.6,76.7"/>
			<circle class="st9" cx="776" cy="546.8" r="8.5"/>
		</g>
		<g>
			<path class="st7" d="M926,469c20.4,62.8-14,130.2-76.7,150.6"/>
			<circle class="st9" cx="849.2" cy="619.4" r="8.5"/>
		</g>
		<g>
			<path class="st7" d="M924.9,468.3c53.4,38.8,65.2,113.5,26.4,166.9"/>
			<circle class="st9" cx="951.2" cy="635.1" r="8.5"/>
		</g>
		<g>
			<path class="st7" d="M923.6,468.4c66,0,119.5,53.5,119.5,119.5"/>
			<circle class="st9" cx="1042.9" cy="587.9" r="8.5"/>
		</g>
		<g>
			<path class="st7" d="M922.6,469.2c53.4-38.8,128.1-27,166.9,26.4"/>
			<circle class="st9" cx="1089.3" cy="495.8" r="8.5"/>
		</g>
		<g>
			<path class="st7" d="M922.2,470.5c20.4-62.8,87.8-97.1,150.6-76.7"/>
			<circle class="st9" cx="1072.7" cy="394" r="8.5"/>
		</g>
		<g>
			<path class="st7" d="M922.7,471.7c-20.4-62.8,14-130.2,76.7-150.6"/>
			<circle class="st9" cx="999.5" cy="321.4" r="8.5"/>
		</g>
		<g>
			<path class="st7" d="M923.8,472.4c-53.4-38.8-65.2-113.5-26.4-166.9"/>
			<circle class="st9" cx="897.6" cy="305.7" r="8.5"/>
		</g>
	</g>
	<circle class="st10" cx="923.5" cy="468.5" r="20"/>
</g>
</svg>
